<svg xmlns="http://www.w3.org/2000/svg" viewBox="0 0 400 420" width="400" height="420" preserveAspectRatio="xMidYMid meet" style="width: 100%; height: 100%; transform: translate3d(0px, 0px, 0px); content-visibility: visible;" _mstVisible="1"><defs _mstVisible="2"><clipPath id="__lottie_element_2" _mstVisible="3"><rect width="400" height="420" x="0" y="0" _mstVisible="4"></rect></clipPath></defs><g clip-path="url(#__lottie_element_2)" _mstVisible="2"><g style="display: block;" transform="matrix(1,0.000001391841465192556,-0.000001391841465192556,1,68.12334442138672,9.749832153320312)" opacity="1" _mstVisible="3"><g opacity="1" transform="matrix(1,0,0,1,208.54200744628906,245.6719970703125)" _mstVisible="4"><path fill="rgb(39,120,139)" fill-opacity="1" d=" M-44.435001373291016,49.03099822998047 C-44.435001373291016,49.03099822998047 -26.829999923706055,77.81999969482422 -26.829999923706055,77.81999969482422 C-26.829999923706055,77.81999969482422 56.68000030517578,10.01200008392334 56.68000030517578,10.01200008392334 C56.68000030517578,10.01200008392334 0.8679999709129333,-77.81999969482422 0.8679999709129333,-77.81999969482422 C0.8679999709129333,-77.81999969482422 -27.542999267578125,-58.03200149536133 -27.542999267578125,-58.03200149536133 C-27.542999267578125,-58.03200149536133 -42.6510009765625,-49.75600051879883 -42.6510009765625,-49.75600051879883 C-42.6510009765625,-49.75600051879883 -52.04899978637695,-35.66699981689453 -52.04899978637695,-35.66699981689453 C-52.04899978637695,-35.66699981689453 -56.68000030517578,18.909000396728516 -56.68000030517578,18.909000396728516 C-56.68000030517578,18.909000396728516 -44.435001373291016,49.03099822998047 -44.435001373291016,49.03099822998047z" _mstVisible="5"></path></g><g opacity="0.1" transform="matrix(1,0,0,1,185.14999389648438,254.46200561523438)" _mstVisible="4"><path fill="rgb(43,43,43)" fill-opacity="1" d=" M33.034000396728516,-25.805999755859375 C33.034000396728516,-25.805999755859375 36.04800033569336,8.788000106811523 36.04800033569336,8.788000106811523 C36.04800033569336,8.788000106811523 10.48900032043457,25.805999755859375 10.48900032043457,25.805999755859375 C10.48900032043457,25.805999755859375 -36.04800033569336,-1.5449999570846558 -36.04800033569336,-1.5449999570846558 C-36.04800033569336,-1.5449999570846558 0.061000000685453415,-15.116999626159668 0.061000000685453415,-15.116999626159668 C0.061000000685453415,-15.116999626159668 33.034000396728516,-25.805999755859375 33.034000396728516,-25.805999755859375z" _mstVisible="5"></path></g><g opacity="1" transform="matrix(1,0,0,1,195.63800048828125,244.93299865722656)" _mstVisible="4"><path fill="rgb(138,102,81)" fill-opacity="1" d=" M-9.086999893188477,5.632999897003174 C-9.086999893188477,5.632999897003174 5.10699987411499,11.265000343322754 5.10699987411499,11.265000343322754 C5.10699987411499,11.265000343322754 9.086999893188477,-11.265000343322754 9.086999893188477,-11.265000343322754 C9.086999893188477,-11.265000343322754 -6.440999984741211,-5.586999893188477 -6.440999984741211,-5.586999893188477 C-6.440999984741211,-5.586999893188477 -9.086999893188477,5.632999897003174 -9.086999893188477,5.632999897003174z" _mstVisible="5"></path></g><g opacity="1" transform="matrix(1,0,0,1,176.05499267578125,237.8509979248047)" _mstVisible="4"><path fill="rgb(195,151,122)" fill-opacity="1" d=" M-2.5339999198913574,-13.065999984741211 C-2.5339999198913574,-13.065999984741211 -19.80900001525879,-5.166999816894531 -19.80900001525879,-5.166999816894531 C-19.80900001525879,-5.166999816894531 -16.17300033569336,13.065999984741211 -16.17300033569336,13.065999984741211 C-16.17300033569336,13.065999984741211 10.496000289916992,12.71500015258789 10.496000289916992,12.71500015258789 C10.496000289916992,12.71500015258789 17.315000534057617,6.611000061035156 17.315000534057617,6.611000061035156 C17.315000534057617,6.611000061035156 19.80900001525879,1.4950000047683716 19.80900001525879,1.4950000047683716 C19.80900001525879,1.4950000047683716 11.821000099182129,-6.714000225067139 11.821000099182129,-6.714000225067139 C11.821000099182129,-6.714000225067139 -2.5339999198913574,-13.065999984741211 -2.5339999198913574,-13.065999984741211z" _mstVisible="5"></path></g><g opacity="1" transform="matrix(1,0,0,1,0,0)" _mstVisible="4"><g opacity="1" transform="matrix(1,0,0,1,198.48599243164062,244.46200561523438)" _mstVisible="5"><path fill="rgb(48,143,166)" fill-opacity="1" d=" M5.114999771118164,25.023000717163086 C5.114999771118164,25.023000717163086 -5.114999771118164,25.023000717163086 -5.114999771118164,25.023000717163086 C-5.114999771118164,25.023000717163086 -5.114999771118164,-25.023000717163086 -5.114999771118164,-25.023000717163086 C-5.114999771118164,-25.023000717163086 5.114999771118164,-25.023000717163086 5.114999771118164,-25.023000717163086 C5.114999771118164,-25.023000717163086 5.114999771118164,25.023000717163086 5.114999771118164,25.023000717163086z" _mstVisible="6"></path></g><g opacity="1" transform="matrix(1,0,0,1,209.39100646972656,243.02200317382812)" _mstVisible="5"><path fill="rgb(195,151,122)" fill-opacity="1" d=" M8.793000221252441,-14.366000175476074 C8.793000221252441,-14.366000175476074 5.589000225067139,13.699999809265137 5.589000225067139,13.699999809265137 C5.589000225067139,13.699999809265137 -8.645999908447266,15.178000450134277 -8.645999908447266,15.178000450134277 C-8.645999908447266,15.178000450134277 -8.793000221252441,2.6510000228881836 -8.793000221252441,2.6510000228881836 C-8.793000221252441,2.6510000228881836 -2.6640000343322754,-15.178000450134277 -2.6640000343322754,-15.178000450134277 C-2.6640000343322754,-15.178000450134277 8.793000221252441,-14.366000175476074 8.793000221252441,-14.366000175476074z" _mstVisible="6"></path></g><g opacity="1" transform="matrix(1,0,0,1,197.802001953125,236.75799560546875)" _mstVisible="5"><path fill="rgb(223,188,164)" fill-opacity="1" d=" M-9.925999641418457,-5.622000217437744 C-9.925999641418457,-5.622000217437744 -4.432000160217285,7.703999996185303 -4.432000160217285,7.703999996185303 C-4.432000160217285,7.703999996185303 2.6429998874664307,1.0420000553131104 2.6429998874664307,1.0420000553131104 C2.6429998874664307,1.0420000553131104 2.7960000038146973,8.914999961853027 2.7960000038146973,8.914999961853027 C2.7960000038146973,8.914999961853027 9.925999641418457,8.706000328063965 9.925999641418457,8.706000328063965 C9.925999641418457,8.706000328063965 8.925000190734863,-8.914999961853027 8.925000190734863,-8.914999961853027 C8.925000190734863,-8.914999961853027 -9.925999641418457,-5.622000217437744 -9.925999641418457,-5.622000217437744z" _mstVisible="6"></path></g></g></g><g style="display: block;" transform="matrix(1,0,0,1,68.12300872802734,9.75)" opacity="1" _mstVisible="3"><g opacity="0.1" transform="matrix(1,0,0,1,124.25499725341797,390.0840148925781)" _mstVisible="4"><path fill="rgb(0,0,0)" fill-opacity="1" d=" M113.49700164794922,-0.6840000152587891 C113.49700164794922,-0.6840000152587891 -9.138999938964844,-10.164999961853027 -9.138999938964844,-10.164999961853027 C-9.138999938964844,-10.164999961853027 -113.49800109863281,0.3540000021457672 -113.49800109863281,0.3540000021457672 C-113.49800109863281,0.3540000021457672 -31.018999099731445,10.166000366210938 -31.018999099731445,10.166000366210938 C-31.018999099731445,10.166000366210938 113.49700164794922,-0.6840000152587891 113.49700164794922,-0.6840000152587891z" _mstVisible="5"></path></g></g><g style="display: block;" transform="matrix(1,0,0,1,68.12300872802734,9.75)" opacity="1" _mstVisible="3"><g opacity="1" transform="matrix(1,0,0,1,0,0)" _mstVisible="4"><path fill="rgb(71,71,71)" fill-opacity="1" d=" M141.8769989013672,314.75 C141.8769989013672,314.75 86.37699890136719,324.75 86.37699890136719,324.75 C86.37699890136719,324.75 87.87699890136719,353.25 87.87699890136719,353.25 C87.87699890136719,353.25 122.87699890136719,349.25 122.87699890136719,349.25 C122.87699890136719,349.25 141.8769989013672,314.75 141.8769989013672,314.75z" _mstVisible="5"></path></g><g opacity="1" transform="matrix(1,0,0,1,0,0)" _mstVisible="4"><g opacity="1" transform="matrix(1,0,0,1,129.49899291992188,314.4469909667969)" _mstVisible="5"><path fill="rgb(21,94,95)" fill-opacity="1" d=" M24.110000610351562,-21.158000946044922 C24.110000610351562,-21.158000946044922 5.059999942779541,14.484999656677246 5.059999942779541,14.484999656677246 C5.059999942779541,14.484999656677246 -24.108999252319336,21.158000946044922 -24.108999252319336,21.158000946044922 C-24.108999252319336,21.158000946044922 -23.93000030517578,-21.104000091552734 -23.93000030517578,-21.104000091552734 C-23.93000030517578,-21.104000091552734 24.110000610351562,-21.158000946044922 24.110000610351562,-21.158000946044922z" _mstVisible="6"></path></g><g opacity="1" transform="matrix(1,0,0,1,116.31300354003906,347.8179931640625)" _mstVisible="5"><path fill="rgb(70,70,70)" fill-opacity="1" d=" M18.246000289916992,-18.88599967956543 C18.246000289916992,-18.88599967956543 2.0869998931884766,10.479999542236328 2.0869998931884766,10.479999542236328 C2.0869998931884766,10.479999542236328 -3.747999906539917,18.886999130249023 -3.747999906539917,18.886999130249023 C-3.747999906539917,18.886999130249023 -17.53499984741211,18.886999130249023 -17.53499984741211,18.886999130249023 C-17.53499984741211,18.886999130249023 -18.246000289916992,1.6820000410079956 -18.246000289916992,1.6820000410079956 C-18.246000289916992,1.6820000410079956 -10.92300033569336,-12.211999893188477 -10.92300033569336,-12.211999893188477 C-10.92300033569336,-12.211999893188477 18.246000289916992,-18.88599967956543 18.246000289916992,-18.88599967956543z" _mstVisible="6"></path></g><g opacity="1" transform="matrix(1,0,0,1,114.13800048828125,371.0039978027344)" _mstVisible="5"><path fill="rgb(80,169,170)" fill-opacity="1" d=" M4.26200008392334,-12.706999778747559 C4.26200008392334,-12.706999778747559 14.531000137329102,-1.805999994277954 14.531000137329102,-1.805999994277954 C14.531000137329102,-1.805999994277954 15.361000061035156,8.633000373840332 15.361000061035156,8.633000373840332 C15.361000061035156,8.633000373840332 2.174999952316284,12.706000328063965 2.174999952316284,12.706000328063965 C2.174999952316284,12.706000328063965 -15.02299976348877,12.706000328063965 -15.02299976348877,12.706000328063965 C-15.02299976348877,12.706000328063965 -15.361000061035156,-4.300000190734863 -15.361000061035156,-4.300000190734863 C-15.361000061035156,-4.300000190734863 4.26200008392334,-12.706999778747559 4.26200008392334,-12.706999778747559z" _mstVisible="6"></path></g><g opacity="1" transform="matrix(1,0,0,1,87.30999755859375,317.1679992675781)" _mstVisible="5"><path fill="rgb(28,118,120)" fill-opacity="1" d=" M-26.385000228881836,-23.878999710083008 C-26.385000228881836,-23.878999710083008 -15.819000244140625,23.017000198364258 -15.819000244140625,23.017000198364258 C-15.819000244140625,23.017000198364258 -1.6829999685287476,23.878999710083008 -1.6829999685287476,23.878999710083008 C-1.6829999685287476,23.878999710083008 18.07900047302246,18.437000274658203 18.07900047302246,18.437000274658203 C18.07900047302246,18.437000274658203 26.385000228881836,-16.06100082397461 26.385000228881836,-16.06100082397461 C26.385000228881836,-16.06100082397461 -0.6340000033378601,-38.441001892089844 -0.6340000033378601,-38.441001892089844 C-0.6340000033378601,-38.441001892089844 -26.385000228881836,-23.878999710083008 -26.385000228881836,-23.878999710083008z" _mstVisible="6"></path></g><g opacity="1" transform="matrix(1,0,0,1,88.44100189208984,354.927001953125)" _mstVisible="5"><path fill="rgb(79,82,82)" fill-opacity="1" d=" M16.948999404907227,-19.32200050354004 C16.948999404907227,-19.32200050354004 -16.948999404907227,-14.743000030517578 -16.948999404907227,-14.743000030517578 C-16.948999404907227,-14.743000030517578 -9.315999984741211,19.32200050354004 -9.315999984741211,19.32200050354004 C-9.315999984741211,19.32200050354004 1.4759999513626099,17.490999221801758 1.4759999513626099,17.490999221801758 C1.4759999513626099,17.490999221801758 10.336999893188477,11.777999877929688 10.336999893188477,11.777999877929688 C10.336999893188477,11.777999877929688 16.948999404907227,-19.32200050354004 16.948999404907227,-19.32200050354004z" _mstVisible="6"></path></g><g opacity="1" transform="matrix(1,0,0,1,90.75599670410156,379.6369934082031)" _mstVisible="5"><path fill="rgb(113,202,204)" fill-opacity="1" d=" M8.022000312805176,-12.932000160217285 C8.022000312805176,-12.932000160217285 -11.631999969482422,-5.388000011444092 -11.631999969482422,-5.388000011444092 C-11.631999969482422,-5.388000011444092 -14.633999824523926,12.932000160217285 -14.633999824523926,12.932000160217285 C-14.633999824523926,12.932000160217285 6.019999980926514,7.611999988555908 6.019999980926514,7.611999988555908 C6.019999980926514,7.611999988555908 14.633999824523926,0.6769999861717224 14.633999824523926,0.6769999861717224 C14.633999824523926,0.6769999861717224 8.022000312805176,-12.932000160217285 8.022000312805176,-12.932000160217285z" _mstVisible="6"></path></g><g opacity="1" transform="matrix(1,0,0,1,95.79000091552734,382.6109924316406)" _mstVisible="5"><path fill="rgb(28,118,120)" fill-opacity="1" d=" M19.66699981689453,9.958999633789062 C19.66699981689453,9.958999633789062 15.206999778747559,-9.958999633789062 15.206999778747559,-9.958999633789062 C15.206999778747559,-9.958999633789062 -19.66699981689453,9.958999633789062 -19.66699981689453,9.958999633789062 C-19.66699981689453,9.958999633789062 19.66699981689453,9.958999633789062 19.66699981689453,9.958999633789062z" _mstVisible="6"></path></g><g opacity="1" transform="matrix(1,0,0,1,136.21400451660156,374.3550109863281)" _mstVisible="5"><path fill="rgb(113,202,204)" fill-opacity="1" d=" M19.900999069213867,-9.354999542236328 C19.900999069213867,-9.354999542236328 -7.545000076293945,-5.156000137329102 -7.545000076293945,-5.156000137329102 C-7.545000076293945,-5.156000137329102 -19.900999069213867,9.354999542236328 -19.900999069213867,9.354999542236328 C-19.900999069213867,9.354999542236328 2.1510000228881836,5.2829999923706055 2.1510000228881836,5.2829999923706055 C2.1510000228881836,5.2829999923706055 19.900999069213867,-9.354999542236328 19.900999069213867,-9.354999542236328z" _mstVisible="6"></path></g><g opacity="1" transform="matrix(1,0,0,1,136.21400451660156,374.3550109863281)" _mstVisible="5"><path fill="rgb(28,118,120)" fill-opacity="1" d=" M-19.900999069213867,9.354999542236328 C-19.900999069213867,9.354999542236328 19.900999069213867,-9.354999542236328 19.900999069213867,-9.354999542236328 C19.900999069213867,-9.354999542236328 6.123000144958496,9.354999542236328 6.123000144958496,9.354999542236328 C6.123000144958496,9.354999542236328 -19.900999069213867,9.354999542236328 -19.900999069213867,9.354999542236328z" _mstVisible="6"></path></g></g></g><g style="display: block;" transform="matrix(1,0.000001391841465192556,-0.000001391841465192556,1,68.12334442138672,9.749832153320312)" opacity="1" _mstVisible="3"><g opacity="1" transform="matrix(1,0,0,1,0,0)" _mstVisible="4"><path fill="rgb(139,102,81)" fill-opacity="1" d=" M164.47799682617188,194.58399963378906 C164.47799682617188,194.58399963378906 156.1269989013672,199.5 156.1269989013672,199.5 C156.1269989013672,199.5 152.8769989013672,236.75 152.8769989013672,236.75 C152.8769989013672,236.75 173.14199829101562,225.49899291992188 173.14199829101562,225.49899291992188 C173.14199829101562,225.49899291992188 164.47799682617188,194.58399963378906 164.47799682617188,194.58399963378906z" _mstVisible="5"></path></g><g opacity="1" transform="matrix(1,0,0,1,163.40699768066406,178.2429962158203)" _mstVisible="4"><path fill="rgb(80,169,170)" fill-opacity="1" d=" M-12.62399959564209,-31.76300048828125 C-12.62399959564209,-31.76300048828125 -10.244999885559082,-6.067999839782715 -10.244999885559082,-6.067999839782715 C-10.244999885559082,-6.067999839782715 -11.154000282287598,7.97599983215332 -11.154000282287598,7.97599983215332 C-11.154000282287598,7.97599983215332 -5.164000034332275,56.012001037597656 -5.164000034332275,56.012001037597656 C-5.164000034332275,56.012001037597656 12.87399959564209,12.331999778747559 12.87399959564209,12.331999778747559 C12.87399959564209,12.331999778747559 -12.62399959564209,-31.76300048828125 -12.62399959564209,-31.76300048828125z" _mstVisible="5"></path></g></g><g style="display: block;" transform="matrix(1,0.000007291685051313834,-0.000007291685051313834,1,68.1243667602539,9.749679565429688)" opacity="1" _mstVisible="3"><g opacity="1" transform="matrix(1,0,0,1,0,0)" _mstVisible="4"><g opacity="1" transform="matrix(1,0,0,1,45.198001861572266,239.34500122070312)" _mstVisible="5"><path fill="rgb(195,151,122)" fill-opacity="1" d=" M11.727999687194824,-15.401000022888184 C11.727999687194824,-15.401000022888184 -15.727999687194824,-11.331000328063965 -15.727999687194824,-11.331000328063965 C-15.727999687194824,-11.331000328063965 -13.46500015258789,14.324000358581543 -13.46500015258789,14.324000358581543 C-13.46500015258789,14.324000358581543 3.993000030517578,14.901000022888184 3.993000030517578,14.901000022888184 C3.993000030517578,14.901000022888184 8.395000457763672,7.146999835968018 8.395000457763672,7.146999835968018 C8.395000457763672,7.146999835968018 13.03499984741211,-1.0269999504089355 13.03499984741211,-1.0269999504089355 C13.03499984741211,-1.0269999504089355 11.727999687194824,-15.401000022888184 11.727999687194824,-15.401000022888184z" _mstVisible="6"></path></g><g opacity="1" transform="matrix(1,0,0,1,35.154998779296875,204.2949981689453)" _mstVisible="5"><path fill="rgb(80,169,170)" fill-opacity="1" d=" M20.243000030517578,-10.003000259399414 C20.243000030517578,-10.003000259399414 23.076000213623047,34.02299880981445 23.076000213623047,34.02299880981445 C23.076000213623047,34.02299880981445 -24.743000030517578,16.89299964904785 -24.743000030517578,16.89299964904785 C-24.743000030517578,16.89299964904785 -10.468999862670898,-34.02199935913086 -10.468999862670898,-34.02199935913086 C-10.468999862670898,-34.02199935913086 20.243000030517578,-10.003000259399414 20.243000030517578,-10.003000259399414z" _mstVisible="6"></path></g></g></g><g style="display: block;" transform="matrix(1,0.000001391841465192556,-0.000001391841465192556,1,68.12334442138672,9.749832153320312)" opacity="1" _mstVisible="3"><g opacity="1" transform="matrix(1,0,0,1,0,0)" _mstVisible="4"><g opacity="1" transform="matrix(1,0,0,1,137.0019989013672,209.25)" _mstVisible="5"><path fill="rgb(54,147,149)" fill-opacity="1" d=" M16.15999984741211,-37.07500076293945 C16.15999984741211,-37.07500076293945 4.566999912261963,-43.66699981689453 4.566999912261963,-43.66699981689453 C4.566999912261963,-43.66699981689453 -6.679999828338623,-39.45399856567383 -6.679999828338623,-39.45399856567383 C-6.679999828338623,-39.45399856567383 -15.916999816894531,-23.062000274658203 -15.916999816894531,-23.062000274658203 C-15.916999816894531,-23.062000274658203 -22.246000289916992,-6.578999996185303 -22.246000289916992,-6.578999996185303 C-22.246000289916992,-6.578999996185303 -21.99799919128418,10.616999626159668 -21.99799919128418,10.616999626159668 C-21.99799919128418,10.616999626159668 -16.434999465942383,40.9640007019043 -16.434999465942383,40.9640007019043 C-16.434999465942383,40.9640007019043 -2.3980000019073486,43.66600036621094 -2.3980000019073486,43.66600036621094 C-2.3980000019073486,43.66600036621094 22.246000289916992,32.67599868774414 22.246000289916992,32.67599868774414 C22.246000289916992,32.67599868774414 19.490999221801758,0.7549999952316284 19.490999221801758,0.7549999952316284 C19.490999221801758,0.7549999952316284 16.15999984741211,-37.07500076293945 16.15999984741211,-37.07500076293945z" _mstVisible="6"></path></g><g opacity="1" transform="matrix(1,0,0,1,88.09100341796875,219.52200317382812)" _mstVisible="5"><path fill="rgb(28,118,120)" fill-opacity="1" d=" M26.665000915527344,-16.851999282836914 C26.665000915527344,-16.851999282836914 11.777000427246094,-28.329999923706055 11.777000427246094,-28.329999923706055 C11.777000427246094,-28.329999923706055 -5.828999996185303,-37.1150016784668 -5.828999996185303,-37.1150016784668 C-5.828999996185303,-37.1150016784668 -23.06999969482422,-31.274999618530273 -23.06999969482422,-31.274999618530273 C-23.06999969482422,-31.274999618530273 -32.474998474121094,-20.222999572753906 -32.474998474121094,-20.222999572753906 C-32.474998474121094,-20.222999572753906 -29.858999252319336,18.79599952697754 -29.858999252319336,18.79599952697754 C-29.858999252319336,18.79599952697754 -28.92099952697754,28.31599998474121 -28.92099952697754,28.31599998474121 C-28.92099952697754,28.31599998474121 9.324000358581543,37.11600112915039 9.324000358581543,37.11600112915039 C9.324000358581543,37.11600112915039 32.474998474121094,30.69099998474121 32.474998474121094,30.69099998474121 C32.474998474121094,30.69099998474121 26.665000915527344,-16.851999282836914 26.665000915527344,-16.851999282836914z" _mstVisible="6"></path></g><g opacity="1" transform="matrix(1,0,0,1,105.56900024414062,274.7409973144531)" _mstVisible="5"><path fill="rgb(70,70,70)" fill-opacity="1" d=" M53.68000030517578,-32.814998626708984 C53.68000030517578,-32.814998626708984 52.57400131225586,-1.1690000295639038 52.57400131225586,-1.1690000295639038 C52.57400131225586,-1.1690000295639038 58.5369987487793,19.961999893188477 58.5369987487793,19.961999893188477 C58.5369987487793,19.961999893188477 50.854000091552734,17.107999801635742 50.854000091552734,17.107999801635742 C50.854000091552734,17.107999801635742 46.0369987487793,21.549999237060547 46.0369987487793,21.549999237060547 C46.0369987487793,21.549999237060547 19.04599952697754,32.814998626708984 19.04599952697754,32.814998626708984 C19.04599952697754,32.814998626708984 -58.53799819946289,20.674999237060547 -58.53799819946289,20.674999237060547 C-58.53799819946289,20.674999237060547 -47.90999984741211,-32.814998626708984 -47.90999984741211,-32.814998626708984 C-47.90999984741211,-32.814998626708984 14.996999740600586,-24.527999877929688 14.996999740600586,-24.527999877929688 C14.996999740600586,-24.527999877929688 53.68000030517578,-32.814998626708984 53.68000030517578,-32.814998626708984z" _mstVisible="6"></path></g><g opacity="1" transform="matrix(1,0,0,1,142.33700561523438,274.74200439453125)" _mstVisible="5"><path fill="rgb(79,82,82)" fill-opacity="1" d=" M-21.770000457763672,-24.527999877929688 C-21.770000457763672,-24.527999877929688 -17.722000122070312,32.814998626708984 -17.722000122070312,32.814998626708984 C-17.722000122070312,32.814998626708984 21.770000457763672,19.961999893188477 21.770000457763672,19.961999893188477 C21.770000457763672,19.961999893188477 16.91200065612793,-32.814998626708984 16.91200065612793,-32.814998626708984 C16.91200065612793,-32.814998626708984 -21.770000457763672,-24.527999877929688 -21.770000457763672,-24.527999877929688z" _mstVisible="6"></path></g></g></g><g style="display: block;" transform="matrix(1,0.000001391841465192556,-0.000001391841465192556,1,68.06634521484375,9.630828857421875)" opacity="0.98" _mstVisible="3"><g opacity="1" transform="matrix(1,0,0,1,112.56400299072266,112.7750015258789)" _mstVisible="4"><path fill="rgb(223,188,164)" fill-opacity="1" d=" M41.64400100708008,-75.47100067138672 C41.64400100708008,-75.47100067138672 60.957000732421875,12.687000274658203 60.957000732421875,12.687000274658203 C60.957000732421875,12.687000274658203 17.535999298095703,25.753000259399414 17.535999298095703,25.753000259399414 C17.535999298095703,25.753000259399414 8.003000259399414,35.2239990234375 8.003000259399414,35.2239990234375 C8.003000259399414,35.2239990234375 7.5269999504089355,41.08100128173828 7.5269999504089355,41.08100128173828 C7.5269999504089355,41.08100128173828 23.90399932861328,53.141998291015625 23.90399932861328,53.141998291015625 C23.90399932861328,53.141998291015625 -5.7210001945495605,70.47100067138672 -5.7210001945495605,70.47100067138672 C-5.7210001945495605,70.47100067138672 -46.915000915527344,68.7959976196289 -46.915000915527344,68.7959976196289 C-46.915000915527344,68.7959976196289 -47.43199920654297,47.266998291015625 -47.43199920654297,47.266998291015625 C-47.43199920654297,47.266998291015625 -44.03099822998047,1.7760000228881836 -44.03099822998047,1.7760000228881836 C-44.03099822998047,1.7760000228881836 -60.957000732421875,-12.663000106811523 -60.957000732421875,-12.663000106811523 C-60.957000732421875,-12.663000106811523 -46.59000015258789,-32.64400100708008 -46.59000015258789,-32.64400100708008 C-46.59000015258789,-32.64400100708008 -23.003000259399414,-14.069999694824219 -23.003000259399414,-14.069999694824219 C-23.003000259399414,-14.069999694824219 -17.722999572753906,-16.976999282836914 -17.722999572753906,-16.976999282836914 C-17.722999572753906,-16.976999282836914 -46.59000015258789,-44.20399856567383 -46.59000015258789,-44.20399856567383 C-46.59000015258789,-44.20399856567383 -39.31700134277344,-53.29600143432617 -39.31700134277344,-53.29600143432617 C-39.31700134277344,-53.29600143432617 41.64400100708008,-75.47100067138672 41.64400100708008,-75.47100067138672z" _mstVisible="5"></path></g><g opacity="1" transform="matrix(1,0,0,1,122.73500061035156,80.13200378417969)" _mstVisible="4"><path fill="rgb(195,151,122)" fill-opacity="1" d=" M-14.678000450134277,-11.821000099182129 C-14.678000450134277,-11.821000099182129 -1.24399995803833,-9.065999984741211 -1.24399995803833,-9.065999984741211 C-1.24399995803833,-9.065999984741211 14.678000450134277,18.575000762939453 14.678000450134277,18.575000762939453 C14.678000450134277,18.575000762939453 11.130999565124512,-5.455999851226807 11.130999565124512,-5.455999851226807 C11.130999565124512,-5.455999851226807 3.7679998874664307,-18.575000762939453 3.7679998874664307,-18.575000762939453 C3.7679998874664307,-18.575000762939453 -14.678000450134277,-11.821000099182129 -14.678000450134277,-11.821000099182129z" _mstVisible="5"></path></g><g opacity="1" transform="matrix(1,0,0,1,145.0760040283203,69.0790023803711)" _mstVisible="4"><path fill="rgb(195,151,122)" fill-opacity="1" d=" M-7.663000106811523,-9.600000381469727 C-7.663000106811523,-9.600000381469727 7.663000106811523,-12.717000007629395 7.663000106811523,-12.717000007629395 C7.663000106811523,-12.717000007629395 -5.507999897003174,12.717000007629395 -5.507999897003174,12.717000007629395 C-5.507999897003174,12.717000007629395 -7.663000106811523,-9.600000381469727 -7.663000106811523,-9.600000381469727z" _mstVisible="5"></path></g><g opacity="1" transform="matrix(1,0,0,1,136.95799255371094,111.30400085449219)" _mstVisible="4"><path fill="rgb(138,102,81)" fill-opacity="1" d=" M-22.924999237060547,-4.0269999504089355 C-22.924999237060547,-4.0269999504089355 -8.378000259399414,10.00100040435791 -8.378000259399414,10.00100040435791 C-8.378000259399414,10.00100040435791 21.68000030517578,1.2059999704360962 21.68000030517578,1.2059999704360962 C21.68000030517578,1.2059999704360962 22.926000595092773,-10.00100040435791 22.926000595092773,-10.00100040435791 C22.926000595092773,-10.00100040435791 3.312000036239624,-2.7279999256134033 3.312000036239624,-2.7279999256134033 C3.312000036239624,-2.7279999256134033 -22.924999237060547,-4.0269999504089355 -22.924999237060547,-4.0269999504089355z" _mstVisible="5"></path></g><g opacity="1" transform="matrix(1,0,0,1,86.08699798583984,118.99500274658203)" _mstVisible="4"><path fill="rgb(195,151,122)" fill-opacity="1" d=" M7.422999858856201,-56.659000396728516 C7.422999858856201,-56.659000396728516 30.802000045776367,25.91200065612793 30.802000045776367,25.91200065612793 C30.802000045776367,25.91200065612793 34.479000091552734,27.486000061035156 34.479000091552734,27.486000061035156 C34.479000091552734,27.486000061035156 34.005001068115234,34.86199951171875 34.005001068115234,34.86199951171875 C34.005001068115234,34.86199951171875 21.910999298095703,56.659000396728516 21.910999298095703,56.659000396728516 C21.910999298095703,56.659000396728516 -20.95599937438965,41.04800033569336 -20.95599937438965,41.04800033569336 C-20.95599937438965,41.04800033569336 -19.445999145507812,15.267999649047852 -19.445999145507812,15.267999649047852 C-19.445999145507812,15.267999649047852 -22.56100082397461,3.1730000972747803 -22.56100082397461,3.1730000972747803 C-22.56100082397461,3.1730000972747803 -23.510000228881836,-5.991000175476074 -23.510000228881836,-5.991000175476074 C-23.510000228881836,-5.991000175476074 -34.47999954223633,-22.097999572753906 -34.47999954223633,-22.097999572753906 C-34.47999954223633,-22.097999572753906 -16.764999389648438,-35.986000061035156 -16.764999389648438,-35.986000061035156 C-16.764999389648438,-35.986000061035156 3.265000104904175,-17.69099998474121 3.265000104904175,-17.69099998474121 C3.265000104904175,-17.69099998474121 8.753999710083008,-23.19700050354004 8.753999710083008,-23.19700050354004 C8.753999710083008,-23.19700050354004 -3.694000005722046,-37.97800064086914 -3.694000005722046,-37.97800064086914 C-3.694000005722046,-37.97800064086914 -12.407999992370605,-55.93000030517578 -12.407999992370605,-55.93000030517578 C-12.407999992370605,-55.93000030517578 7.422999858856201,-56.659000396728516 7.422999858856201,-56.659000396728516z" _mstVisible="5"></path></g><g opacity="1" transform="matrix(1,0,0,1,117.38999938964844,146.19200134277344)" _mstVisible="4"><path fill="rgb(138,102,81)" fill-opacity="1" d=" M-12.710000038146973,-0.2070000022649765 C-12.710000038146973,-0.2070000022649765 2.7019999027252197,7.664000034332275 2.7019999027252197,7.664000034332275 C2.7019999027252197,7.664000034332275 12.710000038146973,-7.664000034332275 12.710000038146973,-7.664000034332275 C12.710000038146973,-7.664000034332275 -12.710000038146973,-0.2070000022649765 -12.710000038146973,-0.2070000022649765z" _mstVisible="5"></path></g><g opacity="1" transform="matrix(1,0,0,1,69.82099914550781,121.37999725341797)" _mstVisible="4"><path fill="rgb(138,102,81)" fill-opacity="1" d=" M-2.2890000343322754,-6.828999996185303 C-2.2890000343322754,-6.828999996185303 6.294000148773193,-12.881999969482422 6.294000148773193,-12.881999969482422 C6.294000148773193,-12.881999969482422 -3.178999900817871,12.881999969482422 -3.178999900817871,12.881999969482422 C-3.178999900817871,12.881999969482422 -6.294000148773193,0.7870000004768372 -6.294000148773193,0.7870000004768372 C-6.294000148773193,0.7870000004768372 -2.2890000343322754,-6.828999996185303 -2.2890000343322754,-6.828999996185303z" _mstVisible="5"></path></g><g opacity="1" transform="matrix(1,0,0,1,114.90499877929688,48.8489990234375)" _mstVisible="4"><path fill="rgb(138,102,81)" fill-opacity="1" d=" M39.30400085449219,-11.545000076293945 C39.30400085449219,-11.545000076293945 -20.451000213623047,16.781999588012695 -20.451000213623047,16.781999588012695 C-20.451000213623047,16.781999588012695 -35.9640007019043,22.101999282836914 -35.9640007019043,22.101999282836914 C-35.9640007019043,22.101999282836914 -39.30400085449219,14.145000457763672 -39.30400085449219,14.145000457763672 C-39.30400085449219,14.145000457763672 36.5359992980957,-22.101999282836914 36.5359992980957,-22.101999282836914 C36.5359992980957,-22.101999282836914 37.742000579833984,-18.67799949645996 37.742000579833984,-18.67799949645996 C37.742000579833984,-18.67799949645996 39.30400085449219,-11.545000076293945 39.30400085449219,-11.545000076293945z" _mstVisible="5"></path></g><g opacity="1" transform="matrix(1,0,0,1,65.02100372314453,84.2229995727539)" _mstVisible="4"><path fill="rgb(79,82,82)" fill-opacity="1" d=" M6.538000106811523,-17.08099937438965 C6.538000106811523,-17.08099937438965 17.37299919128418,-3.2070000171661377 17.37299919128418,-3.2070000171661377 C17.37299919128418,-3.2070000171661377 34.4640007019043,11.883999824523926 34.4640007019043,11.883999824523926 C34.4640007019043,11.883999824523926 24.332000732421875,17.079999923706055 24.332000732421875,17.079999923706055 C24.332000732421875,17.079999923706055 5.197999954223633,2.6500000953674316 5.197999954223633,2.6500000953674316 C5.197999954223633,2.6500000953674316 -9.696999549865723,14.222000122070312 -9.696999549865723,14.222000122070312 C-9.696999549865723,14.222000122070312 -13.413000106811523,21.10700035095215 -13.413000106811523,21.10700035095215 C-13.413000106811523,21.10700035095215 -25.83099937438965,14.567999839782715 -25.83099937438965,14.567999839782715 C-25.83099937438965,14.567999839782715 -34.4640007019043,2.990000009536743 -34.4640007019043,2.990000009536743 C-34.4640007019043,2.990000009536743 -15.67199993133545,-21.10700035095215 -15.67199993133545,-21.10700035095215 C-15.67199993133545,-21.10700035095215 6.538000106811523,-17.08099937438965 6.538000106811523,-17.08099937438965z" _mstVisible="5"></path></g><g opacity="1" transform="matrix(1,0,0,1,0,0)" _mstVisible="4"><g opacity="1" transform="matrix(1,0,0,1,145.0760040283203,55.19200134277344)" _mstVisible="5"><path fill="rgb(70,70,70)" fill-opacity="1" d=" M7.663000106811523,1.1690000295639038 C7.663000106811523,1.1690000295639038 -2.7279999256134033,-4.285999774932861 -2.7279999256134033,-4.285999774932861 C-2.7279999256134033,-4.285999774932861 -7.664000034332275,4.285999774932861 -7.664000034332275,4.285999774932861 C-7.664000034332275,4.285999774932861 7.663000106811523,1.1690000295639038 7.663000106811523,1.1690000295639038z" _mstVisible="6"></path></g><g opacity="1" transform="matrix(1,0,0,1,117.27899932861328,62.986000061035156)" _mstVisible="5"><path fill="rgb(70,70,70)" fill-opacity="1" d=" M9.222999572753906,-1.4290000200271606 C9.222999572753906,-1.4290000200271606 -3.506999969482422,-5.324999809265137 -3.506999969482422,-5.324999809265137 C-3.506999969482422,-5.324999809265137 -9.222999572753906,5.324999809265137 -9.222999572753906,5.324999809265137 C-9.222999572753906,5.324999809265137 9.222999572753906,-1.4290000200271606 9.222999572753906,-1.4290000200271606z" _mstVisible="6"></path></g></g><g opacity="1" transform="matrix(1,0,0,1,46.9630012512207,74.79100036621094)" _mstVisible="4"><path fill="rgb(70,70,70)" fill-opacity="1" d=" M23.256000518798828,12.083000183105469 C23.256000518798828,12.083000183105469 13.821000099182129,1.850000023841858 13.821000099182129,1.850000023841858 C13.821000099182129,1.850000023841858 -16.4060001373291,12.42300033569336 -16.4060001373291,12.42300033569336 C-16.4060001373291,12.42300033569336 -23.972999572753906,2.2750000953674316 -23.972999572753906,2.2750000953674316 C-23.972999572753906,2.2750000953674316 -1.3270000219345093,-9.710000038146973 -1.3270000219345093,-9.710000038146973 C-1.3270000219345093,-9.710000038146973 23.972999572753906,-12.42300033569336 23.972999572753906,-12.42300033569336 C23.972999572753906,-12.42300033569336 23.256000518798828,12.083000183105469 23.256000518798828,12.083000183105469z" _mstVisible="5"></path></g><g opacity="1" transform="matrix(1,0,0,1,53.361000061035156,116.35299682617188)" _mstVisible="4"><path fill="rgb(70,70,70)" fill-opacity="1" d=" M1.9630000591278076,-17.909000396728516 C1.9630000591278076,-17.909000396728516 -14.170999526977539,-17.56100082397461 -14.170999526977539,-17.56100082397461 C-14.170999526977539,-17.56100082397461 13.279999732971191,17.909000396728516 13.279999732971191,17.909000396728516 C13.279999732971191,17.909000396728516 14.170999526977539,-1.8020000457763672 14.170999526977539,-1.8020000457763672 C14.170999526977539,-1.8020000457763672 1.9630000591278076,-17.909000396728516 1.9630000591278076,-17.909000396728516z" _mstVisible="5"></path></g><g opacity="1" transform="matrix(1,0,0,1,138.58099365234375,105.3290023803711)" _mstVisible="4"><path fill="rgb(70,70,70)" fill-opacity="1" d=" M7.144000053405762,-9.222000122070312 C7.144000053405762,-9.222000122070312 -1.1690000295639038,-6.623000144958496 -1.1690000295639038,-6.623000144958496 C-1.1690000295639038,-6.623000144958496 -10.26099967956543,1.4290000200271606 -10.26099967956543,1.4290000200271606 C-10.26099967956543,1.4290000200271606 -24.548999786376953,1.9490000009536743 -24.548999786376953,1.9490000009536743 C-24.548999786376953,1.9490000009536743 -10.520999908447266,11.300000190734863 -10.520999908447266,11.300000190734863 C-10.520999908447266,11.300000190734863 18.05500030517578,3.247999906539917 18.05500030517578,3.247999906539917 C18.05500030517578,3.247999906539917 24.548999786376953,-11.300000190734863 24.548999786376953,-11.300000190734863 C24.548999786376953,-11.300000190734863 14.416999816894531,-5.326000213623047 14.416999816894531,-5.326000213623047 C14.416999816894531,-5.326000213623047 7.144000053405762,-9.222000122070312 7.144000053405762,-9.222000122070312z" _mstVisible="5"></path></g><g opacity="1" transform="matrix(1,0,0,1,151.4409942626953,132.08599853515625)" _mstVisible="4"><path fill="rgb(70,70,70)" fill-opacity="1" d=" M-4.156000137329102,-10.520999908447266 C-4.156000137329102,-10.520999908447266 -11.430000305175781,10.520999908447266 -11.430000305175781,10.520999908447266 C-11.430000305175781,10.520999908447266 11.430000305175781,4.2870001792907715 11.430000305175781,4.2870001792907715 C11.430000305175781,4.2870001792907715 -4.156000137329102,-10.520999908447266 -4.156000137329102,-10.520999908447266z" _mstVisible="5"></path></g><g opacity="1" transform="matrix(1,0,0,1,67.9260025024414,98.5)" _mstVisible="4"><path fill="rgb(138,102,81)" fill-opacity="1" d=" M1.1890000104904175,-4.75 C1.1890000104904175,-4.75 -6.228000164031982,0.25 -6.228000164031982,0.25 C-6.228000164031982,0.25 6.228000164031982,4.75 6.228000164031982,4.75 C6.228000164031982,4.75 1.1890000104904175,-4.75 1.1890000104904175,-4.75z" _mstVisible="5"></path></g><g opacity="1" transform="matrix(1,0,0,1,136.11399841308594,79.09300231933594)" _mstVisible="4"><path fill="rgb(232,201,182)" fill-opacity="1" d=" M1.2990000247955322,-19.61400032043457 C1.2990000247955322,-19.61400032043457 9.611000061035156,17.014999389648438 9.611000061035156,17.014999389648438 C9.611000061035156,17.014999389648438 1.2990000247955322,19.61400032043457 1.2990000247955322,19.61400032043457 C1.2990000247955322,19.61400032043457 -9.611000061035156,-17.535999298095703 -9.611000061035156,-17.535999298095703 C-9.611000061035156,-17.535999298095703 1.2990000247955322,-19.61400032043457 1.2990000247955322,-19.61400032043457z" _mstVisible="5"></path></g><g opacity="1" transform="matrix(1,0,0,1,141.56900024414062,99.6780014038086)" _mstVisible="4"><path fill="rgb(43,43,43)" fill-opacity="1" d=" M4.156000137329102,-3.572000026702881 C4.156000137329102,-3.572000026702881 1.7680000066757202,3.572000026702881 1.7680000066757202,3.572000026702881 C1.7680000066757202,3.572000026702881 -4.1570000648498535,-0.972000002861023 -4.1570000648498535,-0.972000002861023 C-4.1570000648498535,-0.972000002861023 4.156000137329102,-3.572000026702881 4.156000137329102,-3.572000026702881z" _mstVisible="5"></path></g><g opacity="1" transform="matrix(1,0,0,1,136.6269989013672,159.3280029296875)" _mstVisible="4"><path fill="rgb(113,202,204)" fill-opacity="1" d=" M-16.53499984741211,-5.4720001220703125 C-16.53499984741211,-5.4720001220703125 -6.304999828338623,10.468000411987305 -6.304999828338623,10.468000411987305 C-6.304999828338623,10.468000411987305 16.535999298095703,12.847000122070312 16.535999298095703,12.847000122070312 C16.535999298095703,12.847000122070312 14.156000137329102,-12.847999572753906 14.156000137329102,-12.847999572753906 C14.156000137329102,-12.847999572753906 -16.53499984741211,-5.4720001220703125 -16.53499984741211,-5.4720001220703125z" _mstVisible="5"></path></g><g opacity="1" transform="matrix(1,0,0,1,106.29199981689453,186.23399353027344)" _mstVisible="4"><path fill="rgb(113,202,204)" fill-opacity="1" d=" M24.030000686645508,-16.437000274658203 C24.030000686645508,-16.437000274658203 8.46399974822998,16.437000274658203 8.46399974822998,16.437000274658203 C8.46399974822998,16.437000274658203 -24.030000686645508,-3.8269999027252197 -24.030000686645508,-3.8269999027252197 C-24.030000686645508,-3.8269999027252197 24.030000686645508,-16.437000274658203 24.030000686645508,-16.437000274658203z" _mstVisible="5"></path></g><g opacity="1" transform="matrix(1,0,0,1,53.4739990234375,179.67100524902344)" _mstVisible="4"><path fill="rgb(113,202,204)" fill-opacity="1" d=" M11.657999992370605,-19.628000259399414 C11.657999992370605,-19.628000259399414 -28.788000106811523,-9.39799976348877 -28.788000106811523,-9.39799976348877 C-28.788000106811523,-9.39799976348877 2.1419999599456787,19.628000259399414 2.1419999599456787,19.628000259399414 C2.1419999599456787,19.628000259399414 28.788000106811523,2.7360000610351562 28.788000106811523,2.7360000610351562 C28.788000106811523,2.7360000610351562 11.657999992370605,-19.628000259399414 11.657999992370605,-19.628000259399414z" _mstVisible="5"></path></g></g><g style="display: block;" transform="matrix(1,0.000011257509868300986,-0.000011257509868300986,1,68.12538146972656,9.749542236328125)" opacity="1" _mstVisible="3"><g opacity="1" transform="matrix(1,0,0,1,54.11600112915039,258.5299987792969)" _mstVisible="4"><path fill="rgb(223,188,164)" fill-opacity="1" d=" M4.116000175476074,-20.211999893188477 C4.116000175476074,-20.211999893188477 22.382999420166016,9.104999542236328 22.382999420166016,9.104999542236328 C22.382999420166016,9.104999542236328 18.94300079345703,20.211999893188477 18.94300079345703,20.211999893188477 C18.94300079345703,20.211999893188477 9.36400032043457,19.270999908447266 9.36400032043457,19.270999908447266 C9.36400032043457,19.270999908447266 -22.382999420166016,-4.861000061035156 -22.382999420166016,-4.861000061035156 C-22.382999420166016,-4.861000061035156 4.116000175476074,-20.211999893188477 4.116000175476074,-20.211999893188477z" _mstVisible="5"></path></g></g><g style="display: block;" transform="matrix(1,0.000001391841465192556,-0.000001391841465192556,1,68.06634521484375,9.630828857421875)" opacity="1" _mstVisible="3"><g opacity="1" transform="matrix(1,0,0,1,0,0)" _mstVisible="4"><g opacity="1" transform="matrix(1,0,0,1,97.41500091552734,149.49000549316406)" _mstVisible="5"><path fill="rgb(138,102,81)" fill-opacity="1" d=" M7.264999866485596,-3.505000114440918 C7.264999866485596,-3.505000114440918 8.24899959564209,-3.058000087738037 8.24899959564209,-3.058000087738037 C8.24899959564209,-3.058000087738037 15.838000297546387,0.39100000262260437 15.838000297546387,0.39100000262260437 C15.838000297546387,0.39100000262260437 -12.998000144958496,13.640000343322754 -12.998000144958496,13.640000343322754 C-12.998000144958496,13.640000343322754 -15.838000297546387,-13.640000343322754 -15.838000297546387,-13.640000343322754 C-15.838000297546387,-13.640000343322754 7.264999866485596,-3.505000114440918 7.264999866485596,-3.505000114440918z" _mstVisible="6"></path></g><g opacity="1" transform="matrix(1,0,0,1,85.3270034790039,108.59300231933594)" _mstVisible="5"><path fill="rgb(54,147,149)" fill-opacity="1" d=" M-8.182000160217285,-42.87900161743164 C-8.182000160217285,-42.87900161743164 19.35300064086914,37.391998291015625 19.35300064086914,37.391998291015625 C19.35300064086914,37.391998291015625 0.6499999761581421,46.224998474121094 0.6499999761581421,46.224998474121094 C0.6499999761581421,46.224998474121094 -19.35300064086914,-41.02299880981445 -19.35300064086914,-41.02299880981445 C-19.35300064086914,-41.02299880981445 -14.390999794006348,-46.224998474121094 -14.390999794006348,-46.224998474121094 C-14.390999794006348,-46.224998474121094 -8.182000160217285,-42.87900161743164 -8.182000160217285,-42.87900161743164z" _mstVisible="6"></path></g><g opacity="1" transform="matrix(1,0,0,1,92.47100067138672,140.5290069580078)" _mstVisible="5"><path fill="rgb(28,118,120)" fill-opacity="1" d=" M5.196000099182129,-2.0789999961853027 C5.196000099182129,-2.0789999961853027 -1.2979999780654907,-5.455999851226807 -1.2979999780654907,-5.455999851226807 C-1.2979999780654907,-5.455999851226807 -5.196000099182129,2.3369998931884766 -5.196000099182129,2.3369998931884766 C-5.196000099182129,2.3369998931884766 2.3380000591278076,5.454999923706055 2.3380000591278076,5.454999923706055 C2.3380000591278076,5.454999923706055 5.196000099182129,-2.0789999961853027 5.196000099182129,-2.0789999961853027z" _mstVisible="6"></path></g></g></g><g style="display: block;" transform="matrix(1,0.000001391841465192556,-0.000001391841465192556,1,68.06634521484375,9.630828857421875)" opacity="1" _mstVisible="3"><g opacity="1" transform="matrix(1,0,0,1,0,0)" _mstVisible="4"><g opacity="1" transform="matrix(1,0,0,1,46.880001068115234,55.237998962402344)" _mstVisible="5"><path fill="rgb(80,169,170)" fill-opacity="1" d=" M-46.630001068115234,26.32200050354004 C-46.630001068115234,26.32200050354004 46.630001068115234,7.0980000495910645 46.630001068115234,7.0980000495910645 C46.630001068115234,7.0980000495910645 41.21099853515625,-26.32200050354004 41.21099853515625,-26.32200050354004 C41.21099853515625,-26.32200050354004 -3.7660000324249268,-15.241999626159668 -3.7660000324249268,-15.241999626159668 C-3.7660000324249268,-15.241999626159668 -46.630001068115234,26.32200050354004 -46.630001068115234,26.32200050354004z" _mstVisible="6"></path></g><g opacity="1" transform="matrix(1,0,0,1,135.46400451660156,37.39799880981445)" _mstVisible="5"><path fill="rgb(113,202,204)" fill-opacity="1" d=" M-49.74700164794922,1.2990000247955322 C-49.74700164794922,1.2990000247955322 -42.99300003051758,-13.814000129699707 -42.99300003051758,-13.814000129699707 C-42.99300003051758,-13.814000129699707 -8.961999893188477,-23.638999938964844 -8.961999893188477,-23.638999938964844 C-8.961999893188477,-23.638999938964844 49.74700164794922,-24.93899917602539 49.74700164794922,-24.93899917602539 C49.74700164794922,-24.93899917602539 -41.95399856567383,24.93899917602539 -41.95399856567383,24.93899917602539 C-41.95399856567383,24.93899917602539 -49.74700164794922,1.2990000247955322 -49.74700164794922,1.2990000247955322z" _mstVisible="6"></path></g><g opacity="1" transform="matrix(1,0,0,1,98.71900177001953,19.474000930786133)" _mstVisible="5"><path fill="rgb(80,169,170)" fill-opacity="1" d=" M-25.990999221801758,-19.224000930786133 C-25.990999221801758,-19.224000930786133 -27.783000946044922,9.444000244140625 -27.783000946044922,9.444000244140625 C-27.783000946044922,9.444000244140625 -13.001999855041504,19.224000930786133 -13.001999855041504,19.224000930786133 C-13.001999855041504,19.224000930786133 27.783000946044922,-5.715000152587891 27.783000946044922,-5.715000152587891 C27.783000946044922,-5.715000152587891 -25.990999221801758,-19.224000930786133 -25.990999221801758,-19.224000930786133z" _mstVisible="6"></path></g><g opacity="1" transform="matrix(1,0,0,1,64.41500091552734,20.12299919128418)" _mstVisible="5"><path fill="rgb(54,147,149)" fill-opacity="1" d=" M8.312000274658203,-19.87299919128418 C8.312000274658203,-19.87299919128418 -21.302000045776367,19.87299919128418 -21.302000045776367,19.87299919128418 C-21.302000045776367,19.87299919128418 21.301000595092773,18.573999404907227 21.301000595092773,18.573999404907227 C21.301000595092773,18.573999404907227 8.312000274658203,-19.87299919128418 8.312000274658203,-19.87299919128418z" _mstVisible="6"></path></g></g></g><g style="display: none;" transform="matrix(0.994454562664032,0.10516687482595444,-0.10516687482595444,0.994454562664032,88.88842010498047,-0.3431859314441681)" opacity="1" _mstVisible="3"><g opacity="1" transform="matrix(1,0,0,1,0,0)" _mstVisible="4"><g opacity="1" transform="matrix(1.0990070104599,0,0,1.0990070104599,149.1020050048828,66.62300109863281)" _mstVisible="5"><path fill="rgb(43,43,43)" fill-opacity="1" d=" M3.628000020980835,0 C3.628000020980835,2.003000020980835 2.003000020980835,3.627000093460083 0,3.627000093460083 C-2.003999948501587,3.627000093460083 -3.628000020980835,2.003000020980835 -3.628000020980835,0 C-3.628000020980835,-2.003999948501587 -2.003999948501587,-3.627000093460083 0,-3.627000093460083 C2.003000020980835,-3.627000093460083 3.628000020980835,-2.003999948501587 3.628000020980835,0z" _mstVisible="6"></path></g><g opacity="1" transform="matrix(1.0990070104599,0,0,1.0990070104599,119.74800109863281,74.67500305175781)" _mstVisible="5"><path fill="rgb(43,43,43)" fill-opacity="1" d=" M3.627000093460083,0 C3.627000093460083,2.003000020980835 2.003000020980835,3.627000093460083 0,3.627000093460083 C-2.003000020980835,3.627000093460083 -3.627000093460083,2.003000020980835 -3.627000093460083,0 C-3.627000093460083,-2.003000020980835 -2.003000020980835,-3.627000093460083 0,-3.627000093460083 C2.003000020980835,-3.627000093460083 3.627000093460083,-2.003000020980835 3.627000093460083,0z" _mstVisible="6"></path></g></g></g><g style="display: none;" transform="matrix(0.9991966485977173,0.040076326578855515,-0.040076326578855515,0.9991966485977173,72.89779663085938,6.067139148712158)" opacity="1"><g opacity="1" transform="matrix(1,0,0,1,0,0)"><g opacity="1" transform="matrix(1.0999220609664917,0,0,1.0999220609664917,149.1020050048828,66.62300109863281)"><path fill="rgb(43,43,43)" fill-opacity="1" d=" M3.628000020980835,0 C3.628000020980835,2.003000020980835 2.003000020980835,3.627000093460083 0,3.627000093460083 C-2.003999948501587,3.627000093460083 -3.628000020980835,2.003000020980835 -3.628000020980835,0 C-3.628000020980835,-2.003999948501587 -2.003999948501587,-3.627000093460083 0,-3.627000093460083 C2.003000020980835,-3.627000093460083 3.628000020980835,-2.003999948501587 3.628000020980835,0z"></path></g><g opacity="1" transform="matrix(1.0999220609664917,0,0,1.0999220609664917,119.74800109863281,74.67500305175781)"><path fill="rgb(43,43,43)" fill-opacity="1" d=" M3.627000093460083,0 C3.627000093460083,2.003000020980835 2.003000020980835,3.627000093460083 0,3.627000093460083 C-2.003000020980835,3.627000093460083 -3.627000093460083,2.003000020980835 -3.627000093460083,0 C-3.627000093460083,-2.003000020980835 -2.003000020980835,-3.627000093460083 0,-3.627000093460083 C2.003000020980835,-3.627000093460083 3.627000093460083,-2.003000020980835 3.627000093460083,0z"></path></g></g></g><g style="display: none;" transform="matrix(0.9985853433609009,0.0531732551753521,-0.0531732551753521,0.9985853433609009,198.6959228515625,211.3662567138672)" opacity="1"><g opacity="1" transform="matrix(1,0,0,1,0,0)"><path stroke-linecap="butt" stroke-linejoin="miter" fill-opacity="0" stroke-miterlimit="4" stroke="rgb(43,43,43)" stroke-opacity="1" stroke-width="4" d=" M-2.5,-119 C-2.5,-119 2.75,-118.25 2.75,-118.25 C2.75,-118.25 6,-120.5 6,-120.5"></path></g><g opacity="1" transform="matrix(1,0,0,1,0,0)"><path stroke-linecap="butt" stroke-linejoin="miter" fill-opacity="0" stroke-miterlimit="4" stroke="rgb(43,43,43)" stroke-opacity="1" stroke-width="4" d=" M28.75,-124 C28.75,-124 34,-123.5 34,-123.5 C34,-123.5 36.5,-126.75 36.5,-126.75"></path></g></g><g style="display: none;" transform="matrix(0.9936167597770691,-0.11280840635299683,0.11280840635299683,0.9936167597770691,200.7174835205078,206.9280242919922)" opacity="1"><g opacity="1" transform="matrix(1,0,0,1,0,0)"><path stroke-linecap="butt" stroke-linejoin="miter" fill-opacity="0" stroke-miterlimit="4" stroke="rgb(43,43,43)" stroke-opacity="1" stroke-width="4" d=" M-2.5,-119 C-2.5,-119 2.75,-118.25 2.75,-118.25 C2.75,-118.25 6,-120.5 6,-120.5"></path></g><g opacity="1" transform="matrix(1,0,0,1,0,0)"><path stroke-linecap="butt" stroke-linejoin="miter" fill-opacity="0" stroke-miterlimit="4" stroke="rgb(43,43,43)" stroke-opacity="1" stroke-width="4" d=" M28.75,-124 C28.75,-124 34,-123.5 34,-123.5 C34,-123.5 36.5,-126.75 36.5,-126.75"></path></g></g><g style="display: block;" transform="matrix(1,0.000001391841465192556,-0.000001391841465192556,1,68.06634521484375,9.630828857421875)" opacity="1"><g opacity="1" transform="matrix(1,0,0,1,0,0)"><g opacity="1" transform="matrix(1,0,0,1,149.1020050048828,66.62300109863281)"><path fill="rgb(43,43,43)" fill-opacity="1" d=" M3.628000020980835,0 C3.628000020980835,2.003000020980835 2.003000020980835,3.627000093460083 0,3.627000093460083 C-2.003999948501587,3.627000093460083 -3.628000020980835,2.003000020980835 -3.628000020980835,0 C-3.628000020980835,-2.003999948501587 -2.003999948501587,-3.627000093460083 0,-3.627000093460083 C2.003000020980835,-3.627000093460083 3.628000020980835,-2.003999948501587 3.628000020980835,0z"></path></g><g opacity="1" transform="matrix(1,0,0,1,119.74800109863281,74.67500305175781)"><path fill="rgb(43,43,43)" fill-opacity="1" d=" M3.627000093460083,0 C3.627000093460083,2.003000020980835 2.003000020980835,3.627000093460083 0,3.627000093460083 C-2.003000020980835,3.627000093460083 -3.627000093460083,2.003000020980835 -3.627000093460083,0 C-3.627000093460083,-2.003000020980835 -2.003000020980835,-3.627000093460083 0,-3.627000093460083 C2.003000020980835,-3.627000093460083 3.627000093460083,-2.003000020980835 3.627000093460083,0z"></path></g></g></g><g style="display: block;" transform="matrix(1,0.00000501596105095814,-0.00000501596105095814,1,68.12366485595703,9.749969482421875)" opacity="1" _mstVisible="3"><g opacity="1" transform="matrix(1,0,0,1,0,0)" _mstVisible="4"><g opacity="1" transform="matrix(1,0,0,1,61.42900085449219,293.3420104980469)" _mstVisible="5"><path fill="rgb(57,159,185)" fill-opacity="1" d=" M4.928999900817871,-13.074000358581543 C4.928999900817871,-13.074000358581543 -14.39799976348877,2.0739998817443848 -14.39799976348877,2.0739998817443848 C-14.39799976348877,2.0739998817443848 -5.730999946594238,13.074000358581543 -5.730999946594238,13.074000358581543 C-5.730999946594238,13.074000358581543 14.39799976348877,-2.4539999961853027 14.39799976348877,-2.4539999961853027 C14.39799976348877,-2.4539999961853027 10.689000129699707,-7.954999923706055 10.689000129699707,-7.954999923706055 C10.689000129699707,-7.954999923706055 4.928999900817871,-13.074000358581543 4.928999900817871,-13.074000358581543z" _mstVisible="6"></path></g><g opacity="1" transform="matrix(1,0,0,1,82.09600067138672,279.92401123046875)" _mstVisible="5"><path fill="rgb(195,151,122)" fill-opacity="1" d=" M-6.267000198364258,-13.364999771118164 C-6.267000198364258,-13.364999771118164 -0.7459999918937683,-12.288999557495117 -0.7459999918937683,-12.288999557495117 C-0.7459999918937683,-12.288999557495117 11.970999717712402,4.559999942779541 11.970999717712402,4.559999942779541 C11.970999717712402,4.559999942779541 18.617000579833984,13.364999771118164 18.617000579833984,13.364999771118164 C18.617000579833984,13.364999771118164 5.215000152587891,10.991999626159668 5.215000152587891,10.991999626159668 C5.215000152587891,10.991999626159668 -9.392999649047852,13.364999771118164 -9.392999649047852,13.364999771118164 C-9.392999649047852,13.364999771118164 -18.617000579833984,-2.121999979019165 -18.617000579833984,-2.121999979019165 C-18.617000579833984,-2.121999979019165 -6.267000198364258,-13.364999771118164 -6.267000198364258,-13.364999771118164z" _mstVisible="6"></path></g><g opacity="1" transform="matrix(1,0,0,1,86.70700073242188,288.85699462890625)" _mstVisible="5"><path fill="rgb(138,102,81)" fill-opacity="1" d=" M-14.005000114440918,4.432000160217285 C-14.005000114440918,4.432000160217285 3.821000099182129,-9.0600004196167 3.821000099182129,-9.0600004196167 C3.821000099182129,-9.0600004196167 14.005000114440918,4.432000160217285 14.005000114440918,4.432000160217285 C14.005000114440918,4.432000160217285 -1.3799999952316284,9.0600004196167 -1.3799999952316284,9.0600004196167 C-1.3799999952316284,9.0600004196167 -14.005000114440918,4.432000160217285 -14.005000114440918,4.432000160217285z" _mstVisible="6"></path></g><g opacity="1" transform="matrix(1,0,0,1,0,0)" _mstVisible="5"><g opacity="1" transform="matrix(1,0,0,1,167.2989959716797,212.3280029296875)" _mstVisible="6"><path fill="rgb(94,192,217)" fill-opacity="1" d=" M-77.38200378417969,43.946998596191406 C-77.38200378417969,43.946998596191406 55.018001556396484,-58.4119987487793 55.018001556396484,-58.4119987487793 C55.018001556396484,-58.4119987487793 77.38200378417969,-58.17399978637695 77.38200378417969,-58.17399978637695 C77.38200378417969,-58.17399978637695 6.492000102996826,1.9119999408721924 6.492000102996826,1.9119999408721924 C6.492000102996826,1.9119999408721924 -69.48799896240234,58.4119987487793 -69.48799896240234,58.4119987487793 C-69.48799896240234,58.4119987487793 -77.38200378417969,43.946998596191406 -77.38200378417969,43.946998596191406z" _mstVisible="7"></path></g><g opacity="1" transform="matrix(1,0,0,1,171.3730010986328,215.42300415039062)" _mstVisible="6"><path fill="rgb(57,159,185)" fill-opacity="1" d=" M-65.80999755859375,61.26900100708008 C-65.80999755859375,61.26900100708008 67.83499908447266,-40.80799865722656 67.83499908447266,-40.80799865722656 C67.83499908447266,-40.80799865722656 73.30699920654297,-61.26900100708008 73.30699920654297,-61.26900100708008 C73.30699920654297,-61.26900100708008 -73.30699920654297,51.308998107910156 -73.30699920654297,51.308998107910156 C-73.30699920654297,51.308998107910156 -72.38700103759766,58.48899841308594 -72.38700103759766,58.48899841308594 C-72.38700103759766,58.48899841308594 -65.80999755859375,61.26900100708008 -65.80999755859375,61.26900100708008z" _mstVisible="7"></path></g><g opacity="1" transform="matrix(1,0,0,1,78.14900207519531,253.89100646972656)" _mstVisible="6"><path fill="rgb(48,143,166)" fill-opacity="1" d=" M4.798999786376953,24.274999618530273 C4.798999786376953,24.274999618530273 -19.91699981689453,-15.574000358581543 -19.91699981689453,-15.574000358581543 C-19.91699981689453,-15.574000358581543 -9.010000228881836,-24.274999618530273 -9.010000228881836,-24.274999618530273 C-9.010000228881836,-24.274999618530273 19.91699981689453,12.840999603271484 19.91699981689453,12.840999603271484 C19.91699981689453,12.840999603271484 19.91699981689453,22.799999237060547 19.91699981689453,22.799999237060547 C19.91699981689453,22.799999237060547 4.798999786376953,24.274999618530273 4.798999786376953,24.274999618530273z" _mstVisible="7"></path></g><g opacity="1" transform="matrix(1,0,0,1,103.53099822998047,287.9540100097656)" _mstVisible="6"><path fill="rgb(94,192,217)" fill-opacity="1" d=" M-5.464000225067139,-21.222000122070312 C-5.464000225067139,-21.222000122070312 -20.58300018310547,-9.786999702453613 -20.58300018310547,-9.786999702453613 C-20.58300018310547,-9.786999702453613 7.98799991607666,21.222000122070312 7.98799991607666,21.222000122070312 C7.98799991607666,21.222000122070312 20.58300018310547,12.795999526977539 20.58300018310547,12.795999526977539 C20.58300018310547,12.795999526977539 -5.464000225067139,-21.222000122070312 -5.464000225067139,-21.222000122070312z" _mstVisible="7"></path></g></g></g></g></g></svg>